<svg xmlns="http://www.w3.org/2000/svg" fill="none" viewBox="0 0 15 11"><mask id="a" fill="#fff"><path d="M7.5 11a.8.8 0 0 1-.614-.303L.255 2.773c-.34-.406-.34-1.368 0-1.773C.594.594 1.66.594 2 1l5.5 6.5L13 1c.34-.406 1.406-.406 1.745 0s.34 1.367 0 1.773l-6.63 7.924A.8.8 0 0 1 7.5 11"/></mask><path d="M7.5 11a.8.8 0 0 1-.614-.303L.255 2.773c-.34-.406-.34-1.368 0-1.773C.594.594 1.66.594 2 1l5.5 6.5L13 1c.34-.406 1.406-.406 1.745 0s.34 1.367 0 1.773l-6.63 7.924A.8.8 0 0 1 7.5 11" fill="#fff"/><path d="m6.886 10.697-3.068 2.567.004.004zM.255 2.773l-3.07 2.565.002.002zM.255 1 3.32 3.57l.004-.005zM2 1l-3.07 2.565.008.01.008.009zm5.5 6.5-3.054 2.584L7.5 13.693l3.053-3.61zM13 1l3.053 2.584.008-.01.008-.009zm1.745 0-3.069 2.565.002.002zm0 1.773 3.068 2.567.002-.002zm-6.63 7.924L5.046 8.129zM7.5 7c1.041 0 1.914.487 2.45 1.125l-6.128 5.143A4.8 4.8 0 0 0 7.5 15zm2.453 1.13L3.323.205-2.814 5.34l6.63 7.924zM3.323.206c.39.466.539.9.596 1.11.065.233.081.425.081.569s-.016.336-.081.57A3 3 0 0 1 3.32 3.57l-6.13-5.139C-3.841-.341-4 1.1-4 1.886s.16 2.225 1.185 3.452zm0 3.358a3.2 3.2 0 0 1-1.44 1.003 2.4 2.4 0 0 1-.756.127 2.4 2.4 0 0 1-.755-.127 3.2 3.2 0 0 1-1.441-1.003l6.138-5.13a4.8 4.8 0 0 0-2.178-1.46 5.6 5.6 0 0 0-1.764-.28c-.536 0-1.145.075-1.764.28a4.8 4.8 0 0 0-2.178 1.46zm-4.377.019 5.5 6.5 6.108-5.168-5.5-6.5zm11.608 6.5 5.5-6.5-6.108-5.168-5.5 6.5zm5.515-6.519a3.2 3.2 0 0 1-1.441 1.003 2.4 2.4 0 0 1-.755.127 2.4 2.4 0 0 1-.755-.127 3.2 3.2 0 0 1-1.442-1.003l6.139-5.13a4.8 4.8 0 0 0-2.178-1.46 5.6 5.6 0 0 0-1.764-.28c-.537 0-1.146.075-1.764.28a4.8 4.8 0 0 0-2.178 1.46zm-4.391.002a3 3 0 0 1-.597-1.11 2.1 2.1 0 0 1-.081-.57c0-.145.016-.337.08-.571.059-.209.208-.644.596-1.109l6.138 5.13C18.84 4.112 19 2.674 19 1.888c0-.787-.16-2.226-1.187-3.454zm0-3.362L5.047 8.13l6.135 5.135 6.631-7.924zM5.046 8.13A3.2 3.2 0 0 1 7.5 7v8a4.8 4.8 0 0 0 3.682-1.736z" fill="#fff" mask="url(#a)"/></svg>