<svg xmlns="http://www.w3.org/2000/svg" fill="none" viewBox="0 0 40 40"><path fill-rule="evenodd" clip-rule="evenodd" d="M15.87 22.03s-3.99-1.9-8.81-.4a30 30 0 0 1 5.8-3.96c.94-.41 4.2-.52 4.57-.54.25-.42 4.2-12.22 15.53-9.88l.1.04c-8.26 1.57-9.42 10.22-9.03 10.76.4.56 2.75.58 4.9.44 1.85-.12 3.55-.36 3.72-.48-.09.1-4.96 5.57-10.43 4.95-.25.75-1.79 5.45-5.83 8.03-3.65 2.33-9.84 2.11-9.43 2.03 4.6-1.3 8.9-10.99 8.9-10.99" fill="url(#a)"/><path fill-rule="evenodd" clip-rule="evenodd" d="M22.38 23.21c-1.35 3.97-3.9 7.12-6.83 8.53-3.47 1.68-8.27 1.65-8.66 1.56a.27.27 0 0 1 0-.53 6 6 0 0 0 1.67-.85c3.17-2.26 5.99-7.73 6.93-9.74l-.19-.07c-2-.76-3.95-.79-4.3-.8-2.25-.03-3.78.54-3.91.56a.24.24 0 0 1-.2-.42 29 29 0 0 1 6.05-4.04c1.07-.35 3.8-.45 4.36-.47.6-1.43 4.76-12.08 15.64-9.9.1.02.1.03.2.08a.2.2 0 0 1-.04.37c-.35.08-2.58.42-4.69 2.08-3.78 2.99-4.4 7.75-4.2 8.37.47.53 3.62.5 6.5.17.81-.09 1.6-.2 1.83-.3v.01l.06-.03c.06-.02.22 0 .27.16.03.1-.04.2-.05.2 0 0-1.01 1.16-2.63 2.36-3.94 2.93-6.86 2.79-7.8 2.7M16 21.77l.08.06c.03.03.11.14.08.27-.02.07-.65 1.45-1.58 3.1-1.91 3.4-4.16 6.35-6.39 7.6 1.92-.06 5.62-.45 8.12-2.05 4.21-2.7 5.64-7.78 5.7-7.9.08-.14.22-.13.24-.13.42.04 2.2.3 4.82-.87a18 18 0 0 0 4.92-3.46q-.29.05-.73.1c-1.62.2-6.2.6-7.23-.16-.2-.15-.28-.3-.26-.81a12.2 12.2 0 0 1 3.27-7.23 11 11 0 0 1 5.12-3c-2.46-.38-7.6-.56-11.86 5.07-1.8 2.39-2.58 4.71-2.69 4.87-.08.12-.18.1-.34.11-1.61.07-3.66.24-4.31.53-.76.34-3.12 1.76-4.94 3.25 1.28-.29 3.63-.6 6.41.12.9.24 1.45.48 1.57.53" fill="url(#b)"/><path d="M2.5 17.46a.4.4 0 0 0-.27-.45l-1.95-.6a.4.4 0 0 1-.26-.5l1.35-4.52a.4.4 0 0 1 .5-.27l2.14.66a.4.4 0 0 0 .47-.2q.53-.95 1.16-1.85a.4.4 0 0 0-.04-.51L3.95 7.55a.4.4 0 0 1 0-.57l3.27-3.35a.4.4 0 0 1 .57 0l1.73 1.75a.4.4 0 0 0 .51.04q.75-.51 1.56-.95a.4.4 0 0 0 .2-.46l-.6-2.27a.4.4 0 0 1 .27-.5L15.95.02a.4.4 0 0 1 .5.29l.5 1.92c.06.2.25.32.45.3.88-.14 1.66-.18 2.12-.2a.4.4 0 0 1 .4.4v2.86a.4.4 0 0 1-.38.4c-7.48.28-13.68 6.6-13.77 13.95a.4.4 0 0 1-.4.4H2.72a.4.4 0 0 1-.4-.4q0-1.27.19-2.47M22.99 37.6c-1.1.18-2.09.23-2.64.24a.4.4 0 0 1-.4-.4v-3c0-.14.11-.26.26-.26 7.5-.1 13.74-6.24 14.09-13.45a.4.4 0 0 1 .4-.39h2.65a.4.4 0 0 1 .4.42 18 18 0 0 1-.16 1.83.4.4 0 0 0 .28.44l1.86.58a.4.4 0 0 1 .26.5l-1.35 4.52a.4.4 0 0 1-.5.27l-2-.62a.4.4 0 0 0-.48.2q-.54 1-1.2 1.9a.4.4 0 0 0 .05.52l1.54 1.57a.4.4 0 0 1 0 .56l-3.28 3.35a.4.4 0 0 1-.57 0l-1.6-1.62a.4.4 0 0 0-.51-.05q-.79.55-1.64 1a.4.4 0 0 0-.2.46l.56 2.1a.4.4 0 0 1-.28.49l-4.49 1.22a.4.4 0 0 1-.5-.28z" fill="url(#c)"/><defs><linearGradient id="a" x1="9.46" y1="7.94" x2="30.59" y2="30.94" gradientUnits="userSpaceOnUse"><stop stop-color="#FF875C"/><stop offset="0" stop-color="#FE875E"/><stop offset=".48" stop-color="#BF9ACA"/><stop offset="1" stop-color="#96C5B0"/></linearGradient><linearGradient id="b" x1="9.46" y1="7.94" x2="30.59" y2="30.94" gradientUnits="userSpaceOnUse"><stop stop-color="#FF875C"/><stop offset="0" stop-color="#FE875E"/><stop offset=".48" stop-color="#BF9ACA"/><stop offset="1" stop-color="#96C5B0"/></linearGradient><linearGradient id="c" x1="4.2" y1="1.8" x2="36" y2="36.4" gradientUnits="userSpaceOnUse"><stop stop-color="#FF875C"/><stop offset="0" stop-color="#FE875E"/><stop offset=".48" stop-color="#BF9ACA"/><stop offset="1" stop-color="#96C5B0"/></linearGradient></defs></svg>